<mxfile host="app.diagrams.net" modified="2021-02-08T09:15:45.377Z" agent="5.0 (Macintosh; Intel Mac OS X 10_14_4) AppleWebKit/537.36 (KHTML, like Gecko) Chrome/88.0.4324.146 Safari/537.36" etag="qepq-HsvrGo6I5bGn7DI" version="14.2.9" type="github">
  <diagram id="q4qyiNgOqUL2dLw6L-Zj" name="Page-1">
    <mxGraphModel dx="1426" dy="803" grid="1" gridSize="10" guides="1" tooltips="1" connect="1" arrows="1" fold="1" page="1" pageScale="1" pageWidth="827" pageHeight="1169" math="0" shadow="0">
      <root>
        <mxCell id="0" />
        <mxCell id="1" parent="0" />
        <mxCell id="AhLCm-sgaYB2PcuEjRpb-37" value="" style="rounded=0;whiteSpace=wrap;html=1;fillColor=#fff2cc;strokeColor=#d6b656;" parent="1" vertex="1">
          <mxGeometry x="320" y="170" width="510" height="460" as="geometry" />
        </mxCell>
        <mxCell id="AhLCm-sgaYB2PcuEjRpb-36" value="" style="rounded=0;whiteSpace=wrap;html=1;fillColor=#d5e8d4;strokeColor=#82b366;" parent="1" vertex="1">
          <mxGeometry x="10" y="170" width="290" height="460" as="geometry" />
        </mxCell>
        <mxCell id="AhLCm-sgaYB2PcuEjRpb-1" value="cce-monitor-service" style="rounded=1;whiteSpace=wrap;html=1;fillColor=#e1d5e7;strokeColor=#9673a6;" parent="1" vertex="1">
          <mxGeometry x="370" y="200" width="120" height="60" as="geometry" />
        </mxCell>
        <mxCell id="AhLCm-sgaYB2PcuEjRpb-2" value="console" style="rounded=1;whiteSpace=wrap;html=1;fillColor=#ffff88;strokeColor=#36393d;" parent="1" vertex="1">
          <mxGeometry x="370" y="90" width="120" height="60" as="geometry" />
        </mxCell>
        <mxCell id="AhLCm-sgaYB2PcuEjRpb-4" value="" style="shape=actor;whiteSpace=wrap;html=1;" parent="1" vertex="1">
          <mxGeometry x="415" y="30" width="30" height="50" as="geometry" />
        </mxCell>
        <mxCell id="AhLCm-sgaYB2PcuEjRpb-6" value="ES集群" style="rounded=1;whiteSpace=wrap;html=1;fillColor=#f8cecc;strokeColor=#b85450;" parent="1" vertex="1">
          <mxGeometry x="100" y="200" width="120" height="60" as="geometry" />
        </mxCell>
        <mxCell id="AhLCm-sgaYB2PcuEjRpb-7" value="DB" style="shape=cylinder3;whiteSpace=wrap;html=1;boundedLbl=1;backgroundOutline=1;size=15;direction=south;fillColor=#e1d5e7;strokeColor=#9673a6;" parent="1" vertex="1">
          <mxGeometry x="640" y="200" width="80" height="60" as="geometry" />
        </mxCell>
        <mxCell id="AhLCm-sgaYB2PcuEjRpb-8" value="k8s-event-collector" style="rounded=1;whiteSpace=wrap;html=1;fillColor=#e1d5e7;strokeColor=#9673a6;" parent="1" vertex="1">
          <mxGeometry x="540" y="330" width="190" height="80" as="geometry" />
        </mxCell>
        <mxCell id="AhLCm-sgaYB2PcuEjRpb-9" value="&lt;font style=&quot;font-size: 15px&quot;&gt;&lt;b&gt;Informer&lt;br&gt;&lt;/b&gt;&lt;/font&gt;onAdd&lt;br&gt;onUpdate" style="ellipse;shape=umlControl;whiteSpace=wrap;html=1;direction=south;fillColor=#f8cecc;strokeColor=#b85450;" parent="1" vertex="1">
          <mxGeometry x="110" y="505" width="110" height="90" as="geometry" />
        </mxCell>
        <mxCell id="AhLCm-sgaYB2PcuEjRpb-11" value="cluster B" style="rounded=1;whiteSpace=wrap;html=1;fillColor=#f8cecc;strokeColor=#b85450;" parent="1" vertex="1">
          <mxGeometry x="75" y="375" width="120" height="60" as="geometry" />
        </mxCell>
        <mxCell id="AhLCm-sgaYB2PcuEjRpb-14" value="" style="html=1;shadow=0;dashed=0;align=center;verticalAlign=middle;shape=mxgraph.arrows2.uTurnArrow;dy=4.5;arrowHead=25;dx2=18;direction=south;gradientColor=#b3b3b3;fillColor=#f5f5f5;strokeColor=#666666;" parent="1" vertex="1">
          <mxGeometry x="690" y="270" width="50" height="50" as="geometry" />
        </mxCell>
        <mxCell id="AhLCm-sgaYB2PcuEjRpb-17" value="" style="html=1;shadow=0;dashed=0;align=center;verticalAlign=middle;shape=mxgraph.arrows2.tailedNotchedArrow;dy1=7.5;dx1=16;notch=20;arrowHead=20;dx2=25;dy2=30;direction=south;fillColor=#f5f5f5;strokeColor=#666666;gradientColor=#b3b3b3;" parent="1" vertex="1">
          <mxGeometry x="130" y="435" width="65" height="70" as="geometry" />
        </mxCell>
        <mxCell id="AhLCm-sgaYB2PcuEjRpb-18" value="" style="endArrow=classic;html=1;exitX=0.5;exitY=0;exitDx=0;exitDy=0;exitPerimeter=0;entryX=1;entryY=0.5;entryDx=0;entryDy=0;edgeStyle=orthogonalEdgeStyle;" parent="1" source="AhLCm-sgaYB2PcuEjRpb-7" target="AhLCm-sgaYB2PcuEjRpb-8" edge="1">
          <mxGeometry width="50" height="50" relative="1" as="geometry">
            <mxPoint x="420" y="380" as="sourcePoint" />
            <mxPoint x="470" y="330" as="targetPoint" />
            <Array as="points">
              <mxPoint x="740" y="230" />
              <mxPoint x="740" y="370" />
            </Array>
          </mxGeometry>
        </mxCell>
        <mxCell id="AhLCm-sgaYB2PcuEjRpb-19" value="&lt;font style=&quot;font-size: 14px&quot;&gt;3、遍历数据库，开启/关&lt;br&gt;闭对应集群事件采集&lt;/font&gt;" style="text;html=1;align=center;verticalAlign=middle;resizable=0;points=[];autosize=1;" parent="1" vertex="1">
          <mxGeometry x="505" y="275" width="170" height="40" as="geometry" />
        </mxCell>
        <mxCell id="AhLCm-sgaYB2PcuEjRpb-20" value="" style="endArrow=classic;html=1;exitX=1;exitY=0.5;exitDx=0;exitDy=0;entryX=0.5;entryY=1;entryDx=0;entryDy=0;entryPerimeter=0;" parent="1" source="AhLCm-sgaYB2PcuEjRpb-1" target="AhLCm-sgaYB2PcuEjRpb-7" edge="1">
          <mxGeometry width="50" height="50" relative="1" as="geometry">
            <mxPoint x="420" y="370" as="sourcePoint" />
            <mxPoint x="470" y="320" as="targetPoint" />
          </mxGeometry>
        </mxCell>
        <mxCell id="AhLCm-sgaYB2PcuEjRpb-21" value="" style="endArrow=classic;startArrow=classic;html=1;entryX=0.75;entryY=1;entryDx=0;entryDy=0;exitX=0.75;exitY=0;exitDx=0;exitDy=0;" parent="1" source="AhLCm-sgaYB2PcuEjRpb-1" target="AhLCm-sgaYB2PcuEjRpb-2" edge="1">
          <mxGeometry width="50" height="50" relative="1" as="geometry">
            <mxPoint x="430" y="200" as="sourcePoint" />
            <mxPoint x="470" y="320" as="targetPoint" />
          </mxGeometry>
        </mxCell>
        <mxCell id="AhLCm-sgaYB2PcuEjRpb-22" value="&lt;font style=&quot;font-size: 14px&quot;&gt;1、开启/关闭事件持久化&lt;/font&gt;" style="text;html=1;align=center;verticalAlign=middle;resizable=0;points=[];autosize=1;" parent="1" vertex="1">
          <mxGeometry x="460" y="170" width="170" height="20" as="geometry" />
        </mxCell>
        <mxCell id="AhLCm-sgaYB2PcuEjRpb-23" value="" style="endArrow=classic;html=1;exitX=1.01;exitY=0.591;exitDx=0;exitDy=0;exitPerimeter=0;entryX=0.5;entryY=1;entryDx=0;entryDy=0;edgeStyle=orthogonalEdgeStyle;" parent="1" source="AhLCm-sgaYB2PcuEjRpb-9" target="AhLCm-sgaYB2PcuEjRpb-8" edge="1">
          <mxGeometry width="50" height="50" relative="1" as="geometry">
            <mxPoint x="420" y="520" as="sourcePoint" />
            <mxPoint x="470" y="470" as="targetPoint" />
          </mxGeometry>
        </mxCell>
        <mxCell id="AhLCm-sgaYB2PcuEjRpb-24" value="&lt;font style=&quot;font-size: 14px&quot;&gt;4、k8s-event-collector watch 集群事件&lt;/font&gt;" style="text;html=1;align=center;verticalAlign=middle;resizable=0;points=[];autosize=1;" parent="1" vertex="1">
          <mxGeometry x="380" y="575" width="260" height="20" as="geometry" />
        </mxCell>
        <mxCell id="AhLCm-sgaYB2PcuEjRpb-10" value="cluster A" style="rounded=1;whiteSpace=wrap;html=1;fillColor=#f8cecc;strokeColor=#b85450;" parent="1" vertex="1">
          <mxGeometry x="160" y="375" width="120" height="60" as="geometry" />
        </mxCell>
        <mxCell id="AhLCm-sgaYB2PcuEjRpb-26" value="" style="endArrow=classic;html=1;exitX=0;exitY=0.5;exitDx=0;exitDy=0;entryX=0.433;entryY=1;entryDx=0;entryDy=0;entryPerimeter=0;edgeStyle=orthogonalEdgeStyle;" parent="1" source="AhLCm-sgaYB2PcuEjRpb-8" target="AhLCm-sgaYB2PcuEjRpb-6" edge="1">
          <mxGeometry width="50" height="50" relative="1" as="geometry">
            <mxPoint x="420" y="520" as="sourcePoint" />
            <mxPoint x="470" y="470" as="targetPoint" />
          </mxGeometry>
        </mxCell>
        <mxCell id="AhLCm-sgaYB2PcuEjRpb-27" value="" style="endArrow=classic;html=1;exitX=1;exitY=0.5;exitDx=0;exitDy=0;entryX=0;entryY=0.5;entryDx=0;entryDy=0;" parent="1" source="AhLCm-sgaYB2PcuEjRpb-6" target="AhLCm-sgaYB2PcuEjRpb-1" edge="1">
          <mxGeometry width="50" height="50" relative="1" as="geometry">
            <mxPoint x="420" y="430" as="sourcePoint" />
            <mxPoint x="470" y="380" as="targetPoint" />
          </mxGeometry>
        </mxCell>
        <mxCell id="AhLCm-sgaYB2PcuEjRpb-28" value="&lt;font style=&quot;font-size: 14px&quot;&gt;6、查询事件&lt;/font&gt;" style="text;html=1;align=center;verticalAlign=middle;resizable=0;points=[];autosize=1;" parent="1" vertex="1">
          <mxGeometry x="215" y="210" width="90" height="20" as="geometry" />
        </mxCell>
        <mxCell id="AhLCm-sgaYB2PcuEjRpb-29" value="" style="endArrow=classic;startArrow=classic;html=1;entryX=0.25;entryY=1;entryDx=0;entryDy=0;exitX=0.25;exitY=0;exitDx=0;exitDy=0;" parent="1" source="AhLCm-sgaYB2PcuEjRpb-1" target="AhLCm-sgaYB2PcuEjRpb-2" edge="1">
          <mxGeometry width="50" height="50" relative="1" as="geometry">
            <mxPoint x="380" y="180" as="sourcePoint" />
            <mxPoint x="380" y="140" as="targetPoint" />
          </mxGeometry>
        </mxCell>
        <mxCell id="AhLCm-sgaYB2PcuEjRpb-30" value="&lt;font style=&quot;font-size: 14px&quot;&gt;7、事件展示&lt;/font&gt;" style="text;html=1;align=center;verticalAlign=middle;resizable=0;points=[];autosize=1;" parent="1" vertex="1">
          <mxGeometry x="315" y="170" width="90" height="20" as="geometry" />
        </mxCell>
        <mxCell id="AhLCm-sgaYB2PcuEjRpb-31" value="&lt;font style=&quot;font-size: 14px&quot;&gt;5、事件推送给ES集群&lt;/font&gt;" style="text;html=1;align=center;verticalAlign=middle;resizable=0;points=[];autosize=1;" parent="1" vertex="1">
          <mxGeometry x="355" y="340" width="150" height="20" as="geometry" />
        </mxCell>
        <mxCell id="AhLCm-sgaYB2PcuEjRpb-32" value="" style="endArrow=classic;html=1;edgeStyle=orthogonalEdgeStyle;curved=1;" parent="1" edge="1">
          <mxGeometry width="50" height="50" relative="1" as="geometry">
            <mxPoint x="90" y="222.5" as="sourcePoint" />
            <mxPoint x="90" y="232.5" as="targetPoint" />
            <Array as="points">
              <mxPoint x="90" y="207.5" />
              <mxPoint x="50" y="207.5" />
              <mxPoint x="50" y="252.5" />
              <mxPoint x="90" y="252.5" />
            </Array>
          </mxGeometry>
        </mxCell>
        <mxCell id="AhLCm-sgaYB2PcuEjRpb-33" value="8、定期GC&lt;br&gt;过期数据" style="edgeLabel;html=1;align=center;verticalAlign=middle;resizable=0;points=[];" parent="AhLCm-sgaYB2PcuEjRpb-32" vertex="1" connectable="0">
          <mxGeometry x="-0.0562" y="2" relative="1" as="geometry">
            <mxPoint as="offset" />
          </mxGeometry>
        </mxCell>
        <mxCell id="AhLCm-sgaYB2PcuEjRpb-34" value="&lt;font style=&quot;font-size: 14px&quot;&gt;2、持久化用户动作&lt;/font&gt;" style="text;html=1;align=center;verticalAlign=middle;resizable=0;points=[];autosize=1;" parent="1" vertex="1">
          <mxGeometry x="490" y="210" width="140" height="20" as="geometry" />
        </mxCell>
        <mxCell id="AhLCm-sgaYB2PcuEjRpb-35" value="List &amp;amp; Watch" style="text;html=1;align=center;verticalAlign=middle;resizable=0;points=[];autosize=1;" parent="1" vertex="1">
          <mxGeometry x="190" y="470" width="80" height="20" as="geometry" />
        </mxCell>
        <mxCell id="AhLCm-sgaYB2PcuEjRpb-38" value="&lt;font style=&quot;font-size: 17px&quot;&gt;&lt;b&gt;A区&lt;/b&gt;&lt;/font&gt;" style="text;html=1;align=center;verticalAlign=middle;resizable=0;points=[];autosize=1;" parent="1" vertex="1">
          <mxGeometry x="10" y="600" width="40" height="20" as="geometry" />
        </mxCell>
        <mxCell id="AhLCm-sgaYB2PcuEjRpb-39" value="&lt;font style=&quot;font-size: 17px&quot;&gt;&lt;b&gt;B区&lt;/b&gt;&lt;/font&gt;" style="text;html=1;align=center;verticalAlign=middle;resizable=0;points=[];autosize=1;" parent="1" vertex="1">
          <mxGeometry x="780" y="600" width="40" height="20" as="geometry" />
        </mxCell>
        <mxCell id="AhLCm-sgaYB2PcuEjRpb-40" value="" style="endArrow=classic;html=1;exitX=0.5;exitY=1;exitDx=0;exitDy=0;" parent="1" source="AhLCm-sgaYB2PcuEjRpb-4" edge="1">
          <mxGeometry width="50" height="50" relative="1" as="geometry">
            <mxPoint x="390" y="270" as="sourcePoint" />
            <mxPoint x="430" y="90" as="targetPoint" />
          </mxGeometry>
        </mxCell>
        <mxCell id="AhLCm-sgaYB2PcuEjRpb-42" value="work A" style="rounded=1;whiteSpace=wrap;html=1;fillColor=#cdeb8b;strokeColor=#36393d;" parent="1" vertex="1">
          <mxGeometry x="540" y="380" width="40" height="30" as="geometry" />
        </mxCell>
        <mxCell id="AhLCm-sgaYB2PcuEjRpb-43" value="work B" style="rounded=1;whiteSpace=wrap;html=1;fillColor=#cdeb8b;strokeColor=#36393d;" parent="1" vertex="1">
          <mxGeometry x="580" y="380" width="40" height="30" as="geometry" />
        </mxCell>
        <mxCell id="AhLCm-sgaYB2PcuEjRpb-44" value="work C" style="rounded=1;whiteSpace=wrap;html=1;fillColor=#cdeb8b;strokeColor=#36393d;" parent="1" vertex="1">
          <mxGeometry x="620" y="380" width="40" height="30" as="geometry" />
        </mxCell>
        <mxCell id="AhLCm-sgaYB2PcuEjRpb-45" value="work D" style="rounded=1;whiteSpace=wrap;html=1;fillColor=#cdeb8b;strokeColor=#36393d;" parent="1" vertex="1">
          <mxGeometry x="660" y="380" width="40" height="30" as="geometry" />
        </mxCell>
        <mxCell id="AhLCm-sgaYB2PcuEjRpb-49" value="" style="endArrow=classic;html=1;entryX=0.5;entryY=1;entryDx=0;entryDy=0;edgeStyle=orthogonalEdgeStyle;" parent="1" target="AhLCm-sgaYB2PcuEjRpb-42" edge="1">
          <mxGeometry width="50" height="50" relative="1" as="geometry">
            <mxPoint x="640" y="470" as="sourcePoint" />
            <mxPoint x="930" y="450" as="targetPoint" />
          </mxGeometry>
        </mxCell>
        <mxCell id="AhLCm-sgaYB2PcuEjRpb-53" value="" style="endArrow=classic;html=1;entryX=0.5;entryY=1;entryDx=0;entryDy=0;" parent="1" target="AhLCm-sgaYB2PcuEjRpb-43" edge="1">
          <mxGeometry width="50" height="50" relative="1" as="geometry">
            <mxPoint x="630" y="470" as="sourcePoint" />
            <mxPoint x="960" y="430" as="targetPoint" />
            <Array as="points">
              <mxPoint x="600" y="470" />
            </Array>
          </mxGeometry>
        </mxCell>
        <mxCell id="AhLCm-sgaYB2PcuEjRpb-55" value="" style="endArrow=classic;html=1;entryX=0.5;entryY=1;entryDx=0;entryDy=0;" parent="1" target="AhLCm-sgaYB2PcuEjRpb-45" edge="1">
          <mxGeometry width="50" height="50" relative="1" as="geometry">
            <mxPoint x="640" y="470" as="sourcePoint" />
            <mxPoint x="950" y="470" as="targetPoint" />
            <Array as="points">
              <mxPoint x="680" y="470" />
            </Array>
          </mxGeometry>
        </mxCell>
      </root>
    </mxGraphModel>
  </diagram>
</mxfile>
